
<svg xmlns="http://www.w3.org/2000/svg" version="1.1" xmlns:xlink="http://www.w3.org/1999/xlink" preserveAspectRatio="none" x="0px" y="0px" width="320px" height="320px" viewBox="0 0 320 320">
<defs>
<g id="Layer0_0_FILL">
<path fill="#01C2E5" stroke="none" d="
M 171.95 218.9
Q 176.7 214.2 180.3 208.6
L 169.35 195.05 171.95 218.9
M 161.05 213.25
L 149.55 204.45
Q 151.4 219.95 160.95 227.75 161.65 227.3 162.35 226.8 161.35 219.9 161.05 213.25
M 125.95 154.85
L 140.35 170.85 145 146.1
Q 134.15 148 125.05 153.35 118 157.45 112 163.65
L 125.95 172.85 125.95 154.85
M 154.35 174.05
L 161.35 197.7
Q 162.1 188.8 164.25 180.35
L 154.35 174.05
M 161.35 197.7
L 149.55 185.85
Q 151.15 194.9 154.35 202.1 157.1 208.35 161.05 213.25 160.7 205.3 161.35 197.7
M 105.75 187.4
L 98.75 181.95
Q 96.8 185.55 95 189.5
L 103.95 195.85 105.75 187.4
M 114.75 193.35
L 112 163.65
Q 104.6 171.25 98.75 181.95
L 105.75 187.4 114.75 193.35
M 159.8 145.1
Q 152.05 144.9 145 146.1
L 153.75 159.05 159.8 145.1
M 187.9 192.2
L 172.55 177.85 183.6 202.8
Q 186.15 197.8 187.9 192.2
M 189.35 186.75
Q 189.6 185.7 189.8 184.65 191.15 178.05 190.75 172.5
L 177.95 168.05 189.35 186.75
M 169.55 164.75
Q 169.55 164.7 169.6 164.65
L 161.35 160.45 165.25 176.7
Q 165.4 176.15 165.55 175.6 167.25 170.05 169.55 164.75
M 169.8 164.2
Q 172.75 157.4 176.7 150.9 172.25 148.4 166.45 146.7
L 169.6 164.6
Q 169.7 164.4 169.8 164.2 Z"/>

<path fill="#F6013F" stroke="none" d="
M 150.7 250.15
Q 163.3 254.05 160.9 258.9 170 255.2 177.1 250.15 163.9 245.1 150.7 250.15
M 234.2 63.1
Q 194.2 68.5 187.3 73.85
L 161.8 49
Q 130.9 57.55 120.6 71.5
L 114.95 71.5
Q 115.2 72.25 115.4 73 116.15 75.45 116.7 78 116.15 75.45 115.4 73 115.2 72.25 114.95 71.5 114.55 70.15 114.05 68.8 113.95 68.5 113.85 68.2 107.9 51.75 95 38.8
L 88.55 40.4
Q 101.3 53.85 106.75 70.9 106.85 71.2 106.95 71.5 107.25 72.5 107.55 73.5 108.2 75.7 108.7 78 108.2 75.7 107.55 73.5 107.25 72.5 106.95 71.5
L 105.1 71.5 84.2 84.7
Q 39.3 92.8 26.55 99.55 21.1 102.4 21.5 105 23.85 112.3 26.55 119 49.4 176.05 95 189.5 96.8 185.55 98.75 181.95 104.6 171.25 112 163.65 118 157.45 125.05 153.35 134.15 148 145 146.1 152.05 144.9 159.8 145.1 163.3 145.75 166.45 146.7 172.25 148.4 176.7 150.9 189.65 158.25 190.75 172.5 191.15 178.05 189.8 184.65 189.6 185.7 189.35 186.75 188.7 189.55 187.9 192.2 186.15 197.8 183.6 202.8 182.1 205.8 180.3 208.6 176.7 214.2 171.95 218.9 167.6 223.2 162.35 226.8 181.3 224.95 198.85 215.6 207.75 210.85 216.5 203.5 207.75 210.85 198.85 215.6 198.15 223.5 196.95 226.15 190.6 240.6 177.1 250.15 170 255.2 160.9 258.9 154.25 261.55 146.6 263.5 129.7 235.45 80.5 231.7 106.75 244.65 120.6 273.5 112 294.95 91 306 85.95 308.65 80.2 310.7 103.3 313.45 121 306 141.5 297.4 154.7 275.1
L 174 269.3
Q 183.65 276.35 180.2 288.7 193.8 280.65 196.2 259.5 234.85 246.05 252.2 213.3 287.15 221.45 302.55 208.75 306.4 205.55 309 201.1
L 261 190.7
Q 274.55 138.75 234.2 103.5 243.15 72.9 286.2 68.1 259.2 60.65 234.2 63.1
M 174.5 80.9
Q 180.3 87.6 180.3 96.65 180.3 106.7 173.15 113.8 167.85 119.15 160.85 120.5
L 154.45 123.95
Q 147.7 122.55 142.45 117.3 141.75 116.6 141.15 115.9 139.9 114.9 138.8 113.8 131.7 106.7 131.7 96.65 131.7 86.6 138.8 79.45 145.95 72.35 156 72.35 166.05 72.35 173.15 79.45 173.85 80.15 174.5 80.9
M 217.4 129.1
L 225 137.1 217 145.1 225 137.1 217.4 129.1
M 232.6 137.5
L 232.6 147.5 226.2 153.9 232.6 147.5 232.6 137.5
M 241.4 156.3
L 232.6 163.1 241.4 156.3 241.4 145.5 241.4 156.3 Z"/>

<path fill="#E90436" stroke="none" d="
M 160.95 227.75
Q 151 234.1 138.2 236.7 149.9 248.15 173.3 237.2
L 196.95 226.15
Q 198.15 223.5 198.85 215.6 181.3 224.95 162.35 226.8 161.65 227.3 160.95 227.75
M 176.7 150.9
Q 172.75 157.4 169.8 164.2 169.7 164.4 169.6 164.6
L 169.6 164.65
Q 169.55 164.7 169.55 164.75 167.25 170.05 165.55 175.6 165.4 176.15 165.25 176.7 164.7 178.5 164.25 180.35 162.1 188.8 161.35 197.7 160.7 205.3 161.05 213.25 161.35 219.9 162.35 226.8 167.6 223.2 171.95 218.9
L 169.35 195.05 180.3 208.6
Q 182.1 205.8 183.6 202.8
L 172.55 177.85 187.9 192.2
Q 188.7 189.55 189.35 186.75
L 177.95 168.05 190.75 172.5
Q 189.65 158.25 176.7 150.9 Z"/>

<path fill="#7CF406" stroke="none" d="
M 91.8 38.8
Q 93.4 38.55 95 38.3 135.7 31.2 145 0 102.3 3.3 91.8 38.8
M 88.55 40.4
Q 90.15 39.65 91.8 38.8 59.7 9.1 31.4 23.2 45.4 60.95 88.55 40.4 Z"/>

<path fill="#FFFFFF" stroke="none" d="
M 154.45 123.95
L 160.85 120.5
Q 158.5 120.95 156 120.95 147.55 120.95 141.15 115.9 141.75 116.6 142.45 117.3 147.7 122.55 154.45 123.95
M 180.3 96.65
Q 180.3 87.6 174.5 80.9 173.85 80.15 173.15 79.45 166.05 72.35 156 72.35 145.95 72.35 138.8 79.45 131.7 86.6 131.7 96.65 131.7 106.7 138.8 113.8 139.9 114.9 141.15 115.9 147.55 120.95 156 120.95 158.5 120.95 160.85 120.5 167.85 119.15 173.15 113.8 180.3 106.7 180.3 96.65 Z"/>
</g>

<path id="Layer0_0_1_STROKES" stroke="#452458" stroke-width="5" stroke-linejoin="round" stroke-linecap="round" fill="none" d="
M 95 38.8
Q 107.9 51.75 113.85 68.2 113.95 68.5 114.05 68.8 114.55 70.15 114.95 71.5
L 120.6 71.5
Q 130.9 57.55 161.8 49
L 187.3 73.85
Q 194.2 68.5 234.2 63.1 259.2 60.65 286.2 68.1 243.15 72.9 234.2 103.5 274.55 138.75 261 190.7
L 309 201.1
Q 306.4 205.55 302.55 208.75 287.15 221.45 252.2 213.3 234.85 246.05 196.2 259.5 193.8 280.65 180.2 288.7 183.65 276.35 174 269.3
L 154.7 275.1
Q 141.5 297.4 121 306 103.3 313.45 80.2 310.7 85.95 308.65 91 306 112 294.95 120.6 273.5 106.75 244.65 80.5 231.7 129.7 235.45 146.6 263.5 154.25 261.55 160.9 258.9
M 177.1 250.15
Q 190.6 240.6 196.95 226.15
L 173.3 237.2
Q 149.9 248.15 138.2 236.7 151 234.1 160.95 227.75
M 165.25 176.7
Q 164.7 178.5 164.25 180.35
M 169.6 164.6
L 169.6 164.65
M 159.8 145.1
Q 163.3 145.75 166.45 146.7
M 95 189.5
Q 49.4 176.05 26.55 119 23.85 112.3 21.5 105 21.1 102.4 26.55 99.55 39.3 92.8 84.2 84.7
L 105.1 71.5 106.95 71.5
Q 106.85 71.2 106.75 70.9 101.3 53.85 88.55 40.4 45.4 60.95 31.4 23.2 59.7 9.1 91.8 38.8 102.3 3.3 145 0 135.7 31.2 95 38.3 93.4 38.55 91.8 38.8 90.15 39.65 88.55 40.4
M 217.4 129.1
L 225 137.1 217 145.1
M 232.6 137.5
L 232.6 147.5 226.2 153.9
M 176.7 150.9
Q 172.75 157.4 169.8 164.2 169.7 164.4 169.6 164.6
M 169.6 164.65
Q 169.55 164.7 169.55 164.75 167.25 170.05 165.55 175.6 165.4 176.15 165.25 176.7
M 189.35 186.75
Q 188.7 189.55 187.9 192.2 186.15 197.8 183.6 202.8 182.1 205.8 180.3 208.6 176.7 214.2 171.95 218.9 167.6 223.2 162.35 226.8 181.3 224.95 198.85 215.6 207.75 210.85 216.5 203.5
M 190.75 172.5
Q 191.15 178.05 189.8 184.65 189.6 185.7 189.35 186.75
M 190.75 172.5
Q 189.65 158.25 176.7 150.9 172.25 148.4 166.45 146.7
M 241.4 145.5
L 241.4 156.3 232.6 163.1
M 114.95 71.5
Q 115.2 72.25 115.4 73 116.15 75.45 116.7 78
M 106.95 71.5
Q 107.25 72.5 107.55 73.5 108.2 75.7 108.7 78
M 95 189.5
Q 96.8 185.55 98.75 181.95 104.6 171.25 112 163.65 118 157.45 125.05 153.35 134.15 148 145 146.1 152.05 144.9 159.8 145.1
M 198.85 215.6
Q 198.15 223.5 196.95 226.15
M 177.1 250.15
Q 170 255.2 160.9 258.9
M 164.25 180.35
Q 162.1 188.8 161.35 197.7 160.7 205.3 161.05 213.25 161.35 219.9 162.35 226.8 161.65 227.3 160.95 227.75"/>

<path id="Layer0_0_2_STROKES" stroke="#452458" stroke-width="3" stroke-linejoin="round" stroke-linecap="round" fill="none" d="
M 160.9 258.9
Q 163.3 254.05 150.7 250.15 163.9 245.1 177.1 250.15
M 160.95 227.75
Q 151.4 219.95 149.55 204.45
L 161.05 213.25
Q 157.1 208.35 154.35 202.1 151.15 194.9 149.55 185.85
L 161.35 197.7 154.35 174.05 164.25 180.35
M 165.25 176.7
L 161.35 160.45 169.6 164.65
M 169.6 164.6
L 166.45 146.7
M 159.8 145.1
L 153.75 159.05 145 146.1 140.35 170.85 125.95 154.85 125.95 172.85 112 163.65 114.75 193.35 105.75 187.4 103.95 195.85 95 189.5
M 189.35 186.75
L 177.95 168.05 190.75 172.5
M 183.6 202.8
L 172.55 177.85 187.9 192.2
M 98.75 181.95
L 105.75 187.4
M 171.95 218.9
L 169.35 195.05 180.3 208.6"/>

<path id="Layer0_0_3_STROKES" stroke="#452458" stroke-width="6" stroke-linejoin="round" stroke-linecap="round" fill="none" d="
M 141.15 115.9
Q 139.9 114.9 138.8 113.8 131.7 106.7 131.7 96.65 131.7 86.6 138.8 79.45 145.95 72.35 156 72.35 166.05 72.35 173.15 79.45 173.85 80.15 174.5 80.9 180.3 87.6 180.3 96.65 180.3 106.7 173.15 113.8 167.85 119.15 160.85 120.5
M 141.15 115.9
Q 147.55 120.95 156 120.95 158.5 120.95 160.85 120.5"/>
</defs>

<g transform="matrix( 1, 0, 0, 1, 0,0) ">
<use xlink:href="#Layer0_0_FILL"/>

<use xlink:href="#Layer0_0_1_STROKES"/>

<use xlink:href="#Layer0_0_2_STROKES"/>

<use xlink:href="#Layer0_0_3_STROKES"/>
</g>
</svg>
